<?xml version="1.0" encoding="UTF-8" standalone="no"?><!-- Generator: Gravit.io --><svg xmlns="http://www.w3.org/2000/svg" xmlns:xlink="http://www.w3.org/1999/xlink" style="isolation:isolate" viewBox="0 0 65 65" width="65pt" height="65pt"><defs><clipPath id="_clipPath_de6vaPogEdOOaVJ0kMDNy6VaEtNwOqyu"><rect width="65" height="65"/></clipPath></defs><g clip-path="url(#_clipPath_de6vaPogEdOOaVJ0kMDNy6VaEtNwOqyu)"><linearGradient id="_lgradient_0" x1="0" y1="0.5" x2="1" y2="0.5" gradientTransform="matrix(0,21.529,-24.253,0,26,21.471)" gradientUnits="userSpaceOnUse"><stop offset="0%" stop-opacity="1" style="stop-color:rgb(208,208,208)"/><stop offset="100%" stop-opacity="1" style="stop-color:rgb(221,221,221)"/></linearGradient><path d=" M 26 21.471 L 1.747 29.728 L 1.747 31.528 L 2.522 31.791 L 26 23.799 L 26 21.471 Z  M 26 24.686 L 1.747 32.943 L 1.747 34.743 L 26 43 L 26 40.671 L 5.942 33.843 L 26 27.016 L 26 24.686 Z  M 26 37.456 L 11.972 32.683 L 8.553 33.847 L 26 39.786 L 26 37.456 Z " fill-rule="evenodd" fill="url(#_lgradient_0)"/><linearGradient id="_lgradient_1" x1="0" y1="0.5" x2="1" y2="0.5" gradientTransform="matrix(0,-21.529,24.253,0,39,43)" gradientUnits="userSpaceOnUse"><stop offset="0%" stop-opacity="1" style="stop-color:rgb(73,202,73)"/><stop offset="99.16666666666667%" stop-opacity="1" style="stop-color:rgb(61,219,158)"/></linearGradient><path d=" M 39 43 L 63.253 34.743 L 63.253 32.943 L 62.478 32.68 L 39 40.672 L 39 43 Z  M 39 39.785 L 63.253 31.528 L 63.253 29.728 L 39 21.471 L 39 23.8 L 59.058 30.628 L 39 37.455 L 39 39.785 Z  M 39 27.015 L 53.028 31.788 L 56.447 30.624 L 39 24.685 L 39 27.015 Z " fill-rule="evenodd" fill="url(#_lgradient_1)"/><linearGradient id="_lgradient_2" x1="0" y1="0.5" x2="1" y2="0.5" gradientTransform="matrix(4.5,0,0,33,30.503,15.736)" gradientUnits="userSpaceOnUse"><stop offset="0%" stop-opacity="1" style="stop-color:rgb(249,201,114)"/><stop offset="100%" stop-opacity="1" style="stop-color:rgb(244,179,15)"/></linearGradient><rect x="30.503" y="15.736" width="4.5" height="33" transform="matrix(0.96,0.278,-0.278,0.96,10.266,-7.842)" fill="url(#_lgradient_2)"/></g></svg>